<svg width="120" height="148" viewBox="0 0 120 148" fill="none" xmlns="http://www.w3.org/2000/svg">
<g opacity="0.24">
<path fill-rule="evenodd" clip-rule="evenodd" d="M18 70V124C18 127.314 20.6863 130 24 130H96C99.3137 130 102 127.314 102 124V70H18ZM8 52C3.58172 52 0 55.5817 0 60V124C0 137.255 10.7452 148 24 148H96C109.255 148 120 137.255 120 124V60C120 55.5817 116.418 52 112 52H8Z" fill="white"/>
<path fill-rule="evenodd" clip-rule="evenodd" d="M60 17.3238C42.378 17.3238 28.0586 32.7869 27.9999 52L12 51.9427C12.0876 23.2383 33.5123 0 60 0C86.4877 0 107.912 23.2383 108 51.9427L92.0001 52C91.9414 32.7869 77.622 17.3238 60 17.3238Z" fill="white"/>
</g>
</svg>
